<svg class="icon" style="width: 1em; height: 1em;vertical-align: middle;fill: currentColor;overflow: hidden;" viewBox="0 0 1024 1024" version="1.1" xmlns="http://www.w3.org/2000/svg"><path d="M1015.66464 260.608L763.392 8.33536a28.43648 28.43648 0 0 0-40.22272 0l-105.0624 105.05216-0.08192 0.0512s0 0.06144-0.0512 0.08192L449.91488 281.6l-0.08192 0.0512s0 0.06144-0.0512 0.08192L281.72288 449.78176l-0.08192 0.0512s0 0.06144-0.0512 0.08192L113.53088 617.97376l-0.08192 0.0512s0 0.06144-0.0512 0.08192L8.33536 723.16928a28.43648 28.43648 0 0 0 0 40.22272L260.608 1015.66464a28.43648 28.43648 0 0 0 40.22272 0l714.83392-714.83392a28.43648 28.43648 0 0 0 0-40.22272zM280.71936 955.33056L68.66944 743.28064l64.90112-64.90112L197.56032 742.4a28.4416 28.4416 0 0 0 40.22272-40.22272l-63.98976-64.02048 43.8784-43.8784 106.02496 106.02496a28.4416 28.4416 0 0 0 40.22272-40.22272L257.88416 554.05568l43.8784-43.8784 63.98976 63.98976a28.4416 28.4416 0 0 0 40.22272-40.22272L342.016 469.95456l43.8784-43.8784 105.99424 106.0352a28.4416 28.4416 0 1 0 40.22272-40.22272L426.0864 385.86368 469.95456 342.016l63.98976 63.98976a28.4416 28.4416 0 0 0 40.22272-40.22272l-63.98976-63.98976 43.8784-43.8784 106.02496 106.00448a28.4416 28.4416 0 0 0 40.22272-40.22272L594.2784 217.67168l43.8784-43.8784 63.98976 63.98976A28.452864 28.452864 0 0 0 742.4 197.56032l-63.98976-63.98976 64.90112-64.90112 212.0192 212.04992z"/></svg>